# xmcd
#
# Track frame offsets:
#	150
#	15447
#	29565
#	43985
#	57519
#	71190
#	83731
#	97924
#	111591
#	124879
#	138431
#	153238
#	166401
#	181455
#	196015
#	210772
#	224194
#	238021
#
# Disc length: 3360 seconds
#
# Revision: 0
# Processed by: cddbd v1.5.2PL0 Copyright (c) Steve Scherf et al.
# Submitted via: EasyCDDAExtractor 9.1.3.1
#
DISCID=070d1e12
DTITLE=Tom Darby and Jimmie Tarlton - Darby and Tarlton - Disc D (Atlanta 1926-28)
DYEAR=2005
DGENRE=Country
TTITLE0=Born In Hard Luck
TTITLE1=Talking Blues
TTITLE2=New Talking Blues
TTITLE3=Hannah
TTITLE4=Old Blind Heck
TTITLE5=Let It Alone
TTITLE6=My Fat Girl
TTITLE7=Waltz Me Around Willie
TTITLE8=Ambitious Father
TTITLE9=You Look Awful Good To Me
TTITLE10=The Medicine Show
TTITLE11=I've Been Married Three Times
TTITLE12=My Wife's Wedding
TTITLE13=Adam And Eve (Pt.1)
TTITLE14=Adam And Eve (Pt.2)
TTITLE15=Oyster Stew
TTITLE16=Oh, Miss Lizzie
TTITLE17=Girls Of Yesterday
EXTD=
EXTT0=
EXTT1=
EXTT2=
EXTT3=
EXTT4=
EXTT5=
EXTT6=
EXTT7=
EXTT8=
EXTT9=
EXTT10=
EXTT11=
EXTT12=
EXTT13=
EXTT14=
EXTT15=
EXTT16=
EXTT17=
PLAYORDER=
